<svg xmlns="http://www.w3.org/2000/svg" viewBox="0 0 103.28 103.89"><path d="M10.19,103.89c-2.55-1.08-4-3.39-5.92-5.23-5.1-5-5.06-5.07-.07-10.07C15,77.75,25.76,66.8,36.76,56.14c3.08-3,3.39-4.75.12-7.92C25.14,36.89,13.8,25.14,2.1,13.76-.78,11-.63,9.29,2.12,6.54c7.89-7.88,7.77-8,15.56-.19L47.33,36c4.68,4.69,4.69,4.69,9.55-.18C68.06,24.66,79.3,13.53,90.35,2.21,93-.53,94.7-.89,97.54,2.07c7.55,7.87,7.69,7.74.13,15.3-10.49,10.48-20.89,21-31.51,31.37-2.56,2.49-2.39,3.91.07,6.32C78,66.6,89.51,78.41,101.3,89.94c2.68,2.63,2.6,4.22,0,6.84-8,8-7.87,8.08-15.94,0-9.89-9.89-20-19.61-29.59-29.75-3.33-3.51-5.09-2.93-8.12.19-11.14,11.47-22.55,22.67-33.87,34C12.72,102.24,11.82,103.51,10.19,103.89Z" fill="#a2aad5"/></svg>